<svg width="255" height="132" viewBox="0 0 255 132" fill="none" xmlns="http://www.w3.org/2000/svg">
<path d="M53.6205 92V79.904C53.6205 79.4773 53.6205 78.8907 53.6205 78.144C53.6205 77.3973 53.6205 76.64 53.6205 75.872C53.6205 75.104 53.6205 74.4853 53.6205 74.016C53.6205 71.4133 53.1512 69.408 52.2125 68C51.2738 66.5707 49.5565 65.856 47.0605 65.856C45.4392 65.856 44.0738 66.1867 42.9645 66.848C41.8552 67.488 41.0125 68.3947 40.4365 69.568C39.8818 70.7413 39.6045 72.1173 39.6045 73.696L36.7245 71.712C36.7245 68.8747 37.3325 66.3893 38.5485 64.256C39.7645 62.1013 41.4392 60.416 43.5725 59.2C45.7272 57.984 48.2125 57.376 51.0285 57.376C55.1885 57.376 58.3138 58.6027 60.4045 61.056C62.4952 63.488 63.5405 66.88 63.5405 71.232C63.5405 72.3413 63.5405 73.6747 63.5405 75.232C63.5405 76.7893 63.5405 78.592 63.5405 80.64V92H53.6205ZM29.6845 92V41.984H39.6045V92H29.6845ZM82.4545 92.704C79.9798 92.704 77.7718 92.3093 75.8305 91.52C73.9105 90.7307 72.4065 89.5893 71.3185 88.096C70.2305 86.6027 69.6865 84.7893 69.6865 82.656C69.6865 80.2453 70.3478 78.2827 71.6705 76.768C72.9932 75.2533 74.7425 74.1013 76.9185 73.312C79.1158 72.5013 81.4945 71.968 84.0545 71.712C87.7878 71.3493 90.3585 71.0187 91.7665 70.72C93.1958 70.4213 93.9105 69.8987 93.9105 69.152C93.9105 69.1307 93.9105 69.1093 93.9105 69.088C93.9105 67.8293 93.3025 66.8373 92.0865 66.112C90.8918 65.3867 89.2172 65.024 87.0625 65.024C84.7798 65.024 83.0305 65.44 81.8145 66.272C80.6198 67.0827 80.0225 68.3307 80.0225 70.016H70.2625C70.2625 67.2853 70.9985 64.9813 72.4705 63.104C73.9638 61.2267 75.9798 59.808 78.5185 58.848C81.0572 57.8667 83.9265 57.376 87.1265 57.376C90.1132 57.376 92.8758 57.8347 95.4145 58.752C97.9532 59.648 99.9905 61.0027 101.527 62.816C103.084 64.6293 103.863 66.9333 103.863 69.728C103.863 70.176 103.863 70.624 103.863 71.072C103.863 71.4987 103.863 71.936 103.863 72.384V84.416C103.863 85.2907 103.884 86.1333 103.927 86.944C103.991 87.7333 104.119 88.4587 104.311 89.12C104.524 89.8667 104.791 90.4853 105.111 90.976C105.431 91.4667 105.697 91.808 105.911 92H96.1505C96.0012 91.8507 95.7665 91.5413 95.4465 91.072C95.1478 90.6027 94.8918 90.0587 94.6785 89.44C94.4225 88.6933 94.2305 87.9467 94.1025 87.2C93.9958 86.432 93.9425 85.536 93.9425 84.512L95.9905 85.92C95.3932 87.328 94.4225 88.544 93.0785 89.568C91.7558 90.5707 90.1772 91.3493 88.3425 91.904C86.5292 92.4373 84.5665 92.704 82.4545 92.704ZM85.1105 85.28C86.6678 85.28 88.1185 85.0027 89.4625 84.448C90.8278 83.872 91.9372 82.976 92.7905 81.76C93.6438 80.544 94.0705 78.9547 94.0705 76.992V73.568L96.5345 75.968C95.1265 76.48 93.4945 76.9067 91.6385 77.248C89.8038 77.568 87.9692 77.824 86.1345 78.016C83.9585 78.2293 82.3265 78.6027 81.2385 79.136C80.1718 79.648 79.6385 80.5227 79.6385 81.76C79.6385 82.9333 80.0972 83.8187 81.0145 84.416C81.9318 84.992 83.2972 85.28 85.1105 85.28ZM111.122 105.984V58.016H121.074V105.984H111.122ZM131.57 92.768C128.882 92.768 126.418 92.0533 124.178 90.624C121.938 89.1733 120.146 87.232 118.802 84.8C117.458 82.3467 116.786 79.5947 116.786 76.544C116.786 76.4587 116.786 76.384 116.786 76.32C116.786 76.2347 116.786 76.1387 116.786 76.032L121.074 75.936C121.074 76 121.074 76.064 121.074 76.128C121.074 76.192 121.074 76.256 121.074 76.32C121.074 77.8987 121.458 79.2853 122.226 80.48C122.994 81.6533 123.986 82.56 125.202 83.2C126.418 83.84 127.687 84.16 129.01 84.16C131.186 84.16 133.074 83.4133 134.674 81.92C136.295 80.4053 137.106 78.048 137.106 74.848C137.106 71.648 136.306 69.3227 134.706 67.872C133.106 66.4 131.207 65.664 129.01 65.664C127.687 65.664 126.418 65.984 125.202 66.624C123.986 67.2427 122.994 68.128 122.226 69.28C121.458 70.432 121.074 71.808 121.074 73.408L116.786 73.152C116.786 70.08 117.458 67.3707 118.802 65.024C120.146 62.656 121.938 60.7893 124.178 59.424C126.418 58.0587 128.882 57.376 131.57 57.376C134.322 57.376 136.893 58.0587 139.282 59.424C141.671 60.768 143.602 62.7413 145.074 65.344C146.567 67.9467 147.314 71.1147 147.314 74.848C147.314 78.752 146.589 82.0373 145.138 84.704C143.687 87.3707 141.767 89.3867 139.378 90.752C136.989 92.096 134.386 92.768 131.57 92.768ZM165.017 92.704C162.542 92.704 160.334 92.3093 158.393 91.52C156.473 90.7307 154.969 89.5893 153.881 88.096C152.793 86.6027 152.249 84.7893 152.249 82.656C152.249 80.2453 152.91 78.2827 154.233 76.768C155.556 75.2533 157.305 74.1013 159.481 73.312C161.678 72.5013 164.057 71.968 166.617 71.712C170.35 71.3493 172.921 71.0187 174.329 70.72C175.758 70.4213 176.473 69.8987 176.473 69.152C176.473 69.1307 176.473 69.1093 176.473 69.088C176.473 67.8293 175.865 66.8373 174.649 66.112C173.454 65.3867 171.78 65.024 169.625 65.024C167.342 65.024 165.593 65.44 164.377 66.272C163.182 67.0827 162.585 68.3307 162.585 70.016H152.825C152.825 67.2853 153.561 64.9813 155.033 63.104C156.526 61.2267 158.542 59.808 161.081 58.848C163.62 57.8667 166.489 57.376 169.689 57.376C172.676 57.376 175.438 57.8347 177.977 58.752C180.516 59.648 182.553 61.0027 184.089 62.816C185.646 64.6293 186.425 66.9333 186.425 69.728C186.425 70.176 186.425 70.624 186.425 71.072C186.425 71.4987 186.425 71.936 186.425 72.384V84.416C186.425 85.2907 186.446 86.1333 186.489 86.944C186.553 87.7333 186.681 88.4587 186.873 89.12C187.086 89.8667 187.353 90.4853 187.673 90.976C187.993 91.4667 188.26 91.808 188.473 92H178.713C178.564 91.8507 178.329 91.5413 178.009 91.072C177.71 90.6027 177.454 90.0587 177.241 89.44C176.985 88.6933 176.793 87.9467 176.665 87.2C176.558 86.432 176.505 85.536 176.505 84.512L178.553 85.92C177.956 87.328 176.985 88.544 175.641 89.568C174.318 90.5707 172.74 91.3493 170.905 91.904C169.092 92.4373 167.129 92.704 165.017 92.704ZM167.673 85.28C169.23 85.28 170.681 85.0027 172.025 84.448C173.39 83.872 174.5 82.976 175.353 81.76C176.206 80.544 176.633 78.9547 176.633 76.992V73.568L179.097 75.968C177.689 76.48 176.057 76.9067 174.201 77.248C172.366 77.568 170.532 77.824 168.697 78.016C166.521 78.2293 164.889 78.6027 163.801 79.136C162.734 79.648 162.201 80.5227 162.201 81.76C162.201 82.9333 162.66 83.8187 163.577 84.416C164.494 84.992 165.86 85.28 167.673 85.28ZM217.141 87.968C219.231 88.1813 221.055 88.5867 222.613 89.184C224.191 89.76 225.418 90.624 226.293 91.776C227.167 92.9067 227.605 94.4213 227.605 96.32C227.605 98.5173 226.879 100.384 225.429 101.92C223.999 103.477 221.898 104.661 219.125 105.472C216.351 106.283 212.991 106.688 209.045 106.688C203.221 106.688 198.709 105.845 195.509 104.16C192.33 102.496 190.741 100.267 190.741 97.472C190.741 96.6827 190.826 95.968 190.997 95.328C191.189 94.7093 191.423 94.176 191.701 93.728L200.725 95.04C200.618 95.1893 200.501 95.4133 200.373 95.712C200.266 96.032 200.213 96.4267 200.213 96.896C200.213 98.0267 201.055 98.8693 202.741 99.424C204.447 99.9787 206.645 100.256 209.333 100.256C211.231 100.256 212.853 100.117 214.197 99.84C215.562 99.584 216.597 99.2 217.301 98.688C218.026 98.176 218.389 97.5893 218.389 96.928C218.389 95.968 217.919 95.3387 216.981 95.04C216.063 94.7413 214.997 94.528 213.781 94.4L200.917 93.088C198.549 92.8533 196.586 92.1707 195.029 91.04C193.471 89.9093 192.693 88.384 192.693 86.464C192.693 85.2693 193.023 84.1813 193.685 83.2C194.346 82.1973 195.103 81.376 195.957 80.736C196.81 80.0747 197.525 79.6587 198.101 79.488L203.157 82.048C202.751 82.112 202.271 82.368 201.717 82.816C201.183 83.264 200.917 83.7867 200.917 84.384C200.917 84.9813 201.215 85.4933 201.813 85.92C202.431 86.3467 203.551 86.6347 205.173 86.784L217.141 87.968ZM220.501 58.016H229.237L225.685 71.072C225.023 73.5467 224.042 75.7547 222.741 77.696C221.439 79.616 219.701 81.1307 217.525 82.24C215.37 83.3493 212.65 83.904 209.365 83.904C205.909 83.904 202.911 83.3707 200.373 82.304C197.855 81.2373 195.914 79.7333 194.549 77.792C193.183 75.8293 192.501 73.5147 192.501 70.848C192.501 68.1813 193.194 65.8347 194.581 63.808C195.989 61.7813 197.898 60.2027 200.309 59.072C202.741 57.9413 205.493 57.376 208.565 57.376C210.89 57.376 213.013 57.76 214.933 58.528C216.874 59.2747 218.431 60.2667 219.605 61.504C220.799 62.7413 221.418 64.1067 221.461 65.6L219.637 66.08L220.501 58.016ZM209.301 76.64C210.709 76.64 211.946 76.416 213.013 75.968C214.079 75.4987 214.911 74.8267 215.509 73.952C216.106 73.056 216.405 71.9787 216.405 70.72C216.405 69.4827 216.106 68.4267 215.509 67.552C214.911 66.6773 214.079 66.0053 213.013 65.536C211.946 65.0667 210.709 64.832 209.301 64.832C207.957 64.832 206.741 65.0773 205.653 65.568C204.586 66.0373 203.743 66.72 203.125 67.616C202.506 68.4907 202.197 69.5573 202.197 70.816C202.197 72.0533 202.495 73.1093 203.093 73.984C203.69 74.8373 204.522 75.4987 205.589 75.968C206.655 76.416 207.893 76.64 209.301 76.64Z" fill="#50269D"/>
<g clip-path="url(#clip0_216_122)">
<path d="M82.8576 83.8777C82.6038 83.7348 82.1682 83.4682 82.0452 83.3008C81.9523 83.1744 82.2048 83.2168 82.315 83.3285L82.3845 83.3988C82.4455 83.4606 82.5167 83.5115 82.5949 83.5491L82.872 83.6824C82.9182 83.7046 82.9519 83.7467 82.9634 83.7968C82.9779 83.8593 82.9136 83.9092 82.8576 83.8777Z" stroke="white"/>
<path d="M127.819 63.8365C128.594 64.9775 129.067 66.2231 128.269 66.7656C127.47 67.3082 125.702 66.9423 124.927 65.8013C124.152 64.6603 123.224 62.8126 124.023 62.27C124.822 61.7274 127.044 62.6954 127.819 63.8365Z" fill="#44AF69"/>
<path d="M131.573 67.0101C130.804 67.4365 129.986 67.6652 129.687 67.1268C129.389 66.5883 129.723 65.4867 130.492 65.0602C131.261 64.6337 132.488 64.1511 132.786 64.6895C133.085 65.228 132.342 66.5836 131.573 67.0101Z" fill="#44AF69"/>
<path d="M130.923 64.2854C130.576 65.6853 129.963 66.9297 129.066 66.7073C128.168 66.4848 127.326 64.8799 127.673 63.48C128.02 62.0801 128.787 60.0624 129.685 60.2848C130.582 60.5073 131.27 62.8856 130.923 64.2854Z" fill="#44AF69"/>
<path d="M124.602 80.2749C124.011 79.1583 123.092 77.2763 123.007 76.4323C122.962 75.9964 123.435 76.2765 123.562 76.696L123.861 77.6874C123.944 77.9607 124.061 78.2223 124.21 78.4658L124.784 79.4032C124.925 79.6344 125 79.9002 125 80.1712C125 80.3991 124.709 80.4764 124.602 80.2749Z" stroke="white"/>
<ellipse cx="35" cy="112.5" rx="6" ry="11.5" fill="white"/>
<ellipse cx="35" cy="112.5" rx="6" ry="11.5" fill="white"/>
<ellipse cx="35" cy="112.5" rx="6" ry="11.5" fill="white"/>
<ellipse cx="176" cy="112.5" rx="6" ry="11.5" fill="white"/>
<ellipse cx="176" cy="112.5" rx="6" ry="11.5" fill="white"/>
<ellipse cx="176" cy="112.5" rx="6" ry="11.5" fill="white"/>
<rect x="24" y="98" width="83" height="8" rx="1" fill="white"/>
<rect x="24" y="98" width="83" height="8" rx="1" fill="#F6A43E"/>
</g>
<path d="M64.0822 47V38.2727H65.0879V41.4943H65.1731C65.247 41.3807 65.3493 41.2358 65.4799 41.0597C65.6135 40.8807 65.8038 40.7216 66.051 40.5824C66.301 40.4403 66.639 40.3693 67.0652 40.3693C67.6163 40.3693 68.1021 40.5071 68.5225 40.7827C68.943 41.0582 69.2711 41.4489 69.5069 41.9545C69.7427 42.4602 69.8606 43.0568 69.8606 43.7443C69.8606 44.4375 69.7427 45.0384 69.5069 45.5469C69.2711 46.0526 68.9444 46.4446 68.5268 46.723C68.1092 46.9986 67.6277 47.1364 67.0822 47.1364C66.6618 47.1364 66.3251 47.0668 66.0723 46.9276C65.8194 46.7855 65.6248 46.625 65.4885 46.446C65.3521 46.2642 65.247 46.1136 65.1731 45.9943H65.0538V47H64.0822ZM65.0708 43.7273C65.0708 44.2216 65.1433 44.6577 65.2882 45.0355C65.4331 45.4105 65.6447 45.7045 65.9231 45.9176C66.2015 46.1278 66.5424 46.233 66.9458 46.233C67.3663 46.233 67.7172 46.1222 67.9984 45.9006C68.2825 45.6761 68.4956 45.375 68.6376 44.9972C68.7825 44.6165 68.8549 44.1932 68.8549 43.7273C68.8549 43.267 68.7839 42.8523 68.6419 42.483C68.5027 42.1108 68.291 41.8168 68.0069 41.6009C67.7257 41.3821 67.372 41.2727 66.9458 41.2727C66.5368 41.2727 66.193 41.3764 65.9146 41.5838C65.6362 41.7884 65.426 42.0753 65.2839 42.4446C65.1419 42.8111 65.0708 43.2386 65.0708 43.7273ZM71.399 47V40.4545H72.3706V41.4432H72.4387C72.5581 41.1193 72.774 40.8565 73.0865 40.6548C73.399 40.4531 73.7512 40.3523 74.1433 40.3523C74.2172 40.3523 74.3095 40.3537 74.4203 40.3565C74.5311 40.3594 74.6149 40.3636 74.6717 40.3693V41.392C74.6376 41.3835 74.5595 41.3707 74.4373 41.3537C74.318 41.3338 74.1916 41.3239 74.0581 41.3239C73.7399 41.3239 73.4558 41.3906 73.2058 41.5241C72.9586 41.6548 72.7626 41.8366 72.6177 42.0696C72.4757 42.2997 72.4047 42.5625 72.4047 42.858V47H71.399ZM75.8638 47V40.4545H76.8695V47H75.8638ZM76.3752 39.3636C76.1792 39.3636 76.0101 39.2969 75.8681 39.1634C75.7289 39.0298 75.6593 38.8693 75.6593 38.6818C75.6593 38.4943 75.7289 38.3338 75.8681 38.2003C76.0101 38.0668 76.1792 38 76.3752 38C76.5712 38 76.7388 38.0668 76.878 38.2003C77.0201 38.3338 77.0911 38.4943 77.0911 38.6818C77.0911 38.8693 77.0201 39.0298 76.878 39.1634C76.7388 39.2969 76.5712 39.3636 76.3752 39.3636ZM81.1831 47.1364C80.6376 47.1364 80.1561 46.9986 79.7385 46.723C79.3208 46.4446 78.9941 46.0526 78.7583 45.5469C78.5225 45.0384 78.4047 44.4375 78.4047 43.7443C78.4047 43.0568 78.5225 42.4602 78.7583 41.9545C78.9941 41.4489 79.3223 41.0582 79.7427 40.7827C80.1632 40.5071 80.649 40.3693 81.2001 40.3693C81.6262 40.3693 81.9629 40.4403 82.21 40.5824C82.46 40.7216 82.6504 40.8807 82.7811 41.0597C82.9146 41.2358 83.0183 41.3807 83.0922 41.4943H83.1774V38.2727H84.1831V47H83.2115V45.9943H83.0922C83.0183 46.1136 82.9132 46.2642 82.7768 46.446C82.6404 46.625 82.4458 46.7855 82.193 46.9276C81.9402 47.0668 81.6035 47.1364 81.1831 47.1364ZM81.3194 46.233C81.7228 46.233 82.0637 46.1278 82.3422 45.9176C82.6206 45.7045 82.8322 45.4105 82.9771 45.0355C83.122 44.6577 83.1944 44.2216 83.1944 43.7273C83.1944 43.2386 83.1234 42.8111 82.9814 42.4446C82.8393 42.0753 82.6291 41.7884 82.3507 41.5838C82.0723 41.3764 81.7285 41.2727 81.3194 41.2727C80.8933 41.2727 80.5382 41.3821 80.2541 41.6009C79.9728 41.8168 79.7612 42.1108 79.6191 42.483C79.4799 42.8523 79.4103 43.267 79.4103 43.7273C79.4103 44.1932 79.4814 44.6165 79.6234 44.9972C79.7683 45.375 79.9814 45.6761 80.2626 45.9006C80.5467 46.1222 80.899 46.233 81.3194 46.233ZM88.8066 49.5909C88.3208 49.5909 87.9032 49.5284 87.5538 49.4034C87.2044 49.2812 86.9132 49.1193 86.6802 48.9176C86.4501 48.7188 86.2669 48.5057 86.1305 48.2784L86.9316 47.7159C87.0225 47.8352 87.1376 47.9716 87.2768 48.125C87.416 48.2812 87.6064 48.4162 87.8478 48.5298C88.0922 48.6463 88.4118 48.7045 88.8066 48.7045C89.335 48.7045 89.7711 48.5767 90.1149 48.321C90.4586 48.0653 90.6305 47.6648 90.6305 47.1193V45.7898H90.5453C90.4714 45.9091 90.3663 46.0568 90.2299 46.233C90.0964 46.4062 89.9032 46.5611 89.6504 46.6974C89.4004 46.831 89.0623 46.8977 88.6362 46.8977C88.1078 46.8977 87.6333 46.7727 87.2129 46.5227C86.7953 46.2727 86.4643 45.9091 86.22 45.4318C85.9785 44.9545 85.8578 44.375 85.8578 43.6932C85.8578 43.0227 85.9757 42.4389 86.2115 41.9418C86.4473 41.4418 86.7754 41.0554 87.1958 40.7827C87.6163 40.5071 88.1021 40.3693 88.6532 40.3693C89.0794 40.3693 89.4174 40.4403 89.6674 40.5824C89.9203 40.7216 90.1135 40.8807 90.247 41.0597C90.3833 41.2358 90.4885 41.3807 90.5623 41.4943H90.6646V40.4545H91.6362V47.1875C91.6362 47.75 91.5083 48.2074 91.2527 48.5597C90.9998 48.9148 90.6589 49.1747 90.2299 49.3395C89.8038 49.5071 89.3294 49.5909 88.8066 49.5909ZM88.7725 45.9943C89.176 45.9943 89.5169 45.902 89.7953 45.7173C90.0737 45.5327 90.2853 45.267 90.4302 44.9205C90.5751 44.5739 90.6475 44.1591 90.6475 43.6761C90.6475 43.2045 90.5765 42.7884 90.4345 42.4276C90.2924 42.0668 90.0822 41.7841 89.8038 41.5795C89.5254 41.375 89.1816 41.2727 88.7725 41.2727C88.3464 41.2727 87.9913 41.3807 87.7072 41.5966C87.426 41.8125 87.2143 42.1023 87.0723 42.4659C86.9331 42.8295 86.8635 43.233 86.8635 43.6761C86.8635 44.1307 86.9345 44.5327 87.0765 44.8821C87.2214 45.2287 87.4345 45.5014 87.7157 45.7003C87.9998 45.8963 88.3521 45.9943 88.7725 45.9943ZM93.4771 47V40.4545H94.4828V47H93.4771ZM93.9885 39.3636C93.7924 39.3636 93.6234 39.2969 93.4814 39.1634C93.3422 39.0298 93.2725 38.8693 93.2725 38.6818C93.2725 38.4943 93.3422 38.3338 93.4814 38.2003C93.6234 38.0668 93.7924 38 93.9885 38C94.1845 38 94.3521 38.0668 94.4913 38.2003C94.6333 38.3338 94.7044 38.4943 94.7044 38.6818C94.7044 38.8693 94.6333 39.0298 94.4913 39.1634C94.3521 39.2969 94.1845 39.3636 93.9885 39.3636ZM97.3304 43.0625V47H96.3248V40.4545H97.2963V41.4773H97.3816C97.535 41.1449 97.7679 40.8778 98.0804 40.6761C98.3929 40.4716 98.7963 40.3693 99.2907 40.3693C99.7338 40.3693 100.122 40.4602 100.454 40.642C100.786 40.821 101.045 41.0938 101.23 41.4602C101.414 41.8239 101.507 42.2841 101.507 42.8409V47H100.501V42.9091C100.501 42.3949 100.367 41.9943 100.1 41.7074C99.8333 41.4176 99.4668 41.2727 99.0009 41.2727C98.6799 41.2727 98.3929 41.3423 98.1401 41.4815C97.8901 41.6207 97.6926 41.8239 97.5478 42.0909C97.4029 42.358 97.3304 42.6818 97.3304 43.0625ZM105.986 49.5909C105.501 49.5909 105.083 49.5284 104.733 49.4034C104.384 49.2812 104.093 49.1193 103.86 48.9176C103.63 48.7188 103.447 48.5057 103.31 48.2784L104.111 47.7159C104.202 47.8352 104.317 47.9716 104.456 48.125C104.596 48.2812 104.786 48.4162 105.028 48.5298C105.272 48.6463 105.591 48.7045 105.986 48.7045C106.515 48.7045 106.951 48.5767 107.295 48.321C107.638 48.0653 107.81 47.6648 107.81 47.1193V45.7898H107.725C107.651 45.9091 107.546 46.0568 107.41 46.233C107.276 46.4062 107.083 46.5611 106.83 46.6974C106.58 46.831 106.242 46.8977 105.816 46.8977C105.287 46.8977 104.813 46.7727 104.393 46.5227C103.975 46.2727 103.644 45.9091 103.4 45.4318C103.158 44.9545 103.037 44.375 103.037 43.6932C103.037 43.0227 103.155 42.4389 103.391 41.9418C103.627 41.4418 103.955 41.0554 104.376 40.7827C104.796 40.5071 105.282 40.3693 105.833 40.3693C106.259 40.3693 106.597 40.4403 106.847 40.5824C107.1 40.7216 107.293 40.8807 107.427 41.0597C107.563 41.2358 107.668 41.3807 107.742 41.4943H107.844V40.4545H108.816V47.1875C108.816 47.75 108.688 48.2074 108.432 48.5597C108.18 48.9148 107.839 49.1747 107.41 49.3395C106.983 49.5071 106.509 49.5909 105.986 49.5909ZM105.952 45.9943C106.356 45.9943 106.697 45.902 106.975 45.7173C107.253 45.5327 107.465 45.267 107.61 44.9205C107.755 44.5739 107.827 44.1591 107.827 43.6761C107.827 43.2045 107.756 42.7884 107.614 42.4276C107.472 42.0668 107.262 41.7841 106.983 41.5795C106.705 41.375 106.361 41.2727 105.952 41.2727C105.526 41.2727 105.171 41.3807 104.887 41.5966C104.606 41.8125 104.394 42.1023 104.252 42.4659C104.113 42.8295 104.043 43.233 104.043 43.6761C104.043 44.1307 104.114 44.5327 104.256 44.8821C104.401 45.2287 104.614 45.5014 104.895 45.7003C105.18 45.8963 105.532 45.9943 105.952 45.9943ZM116.878 40.4545V41.3068H113.486V40.4545H116.878ZM114.475 38.8864H115.481V45.125C115.481 45.4091 115.522 45.6222 115.604 45.7642C115.689 45.9034 115.797 45.9972 115.928 46.0455C116.062 46.0909 116.202 46.1136 116.35 46.1136C116.461 46.1136 116.552 46.108 116.623 46.0966C116.694 46.0824 116.751 46.071 116.793 46.0625L116.998 46.9659C116.93 46.9915 116.834 47.017 116.712 47.0426C116.59 47.071 116.435 47.0852 116.248 47.0852C115.964 47.0852 115.685 47.0241 115.412 46.902C115.143 46.7798 114.918 46.5938 114.739 46.3438C114.563 46.0938 114.475 45.7784 114.475 45.3977V38.8864ZM119.537 43.0625V47H118.532V38.2727H119.537V41.4773H119.623C119.776 41.1392 120.006 40.8707 120.313 40.6719C120.623 40.4702 121.035 40.3693 121.549 40.3693C121.995 40.3693 122.385 40.4588 122.721 40.6378C123.056 40.8139 123.316 41.0852 123.501 41.4517C123.688 41.8153 123.782 42.2784 123.782 42.8409V47H122.776V42.9091C122.776 42.3892 122.641 41.9872 122.371 41.7031C122.104 41.4162 121.733 41.2727 121.259 41.2727C120.93 41.2727 120.634 41.3423 120.373 41.4815C120.114 41.6207 119.91 41.8239 119.759 42.0909C119.611 42.358 119.537 42.6818 119.537 43.0625ZM128.366 47.1364C127.735 47.1364 127.191 46.9972 126.734 46.7188C126.279 46.4375 125.928 46.0455 125.681 45.5426C125.437 45.0369 125.315 44.4489 125.315 43.7784C125.315 43.108 125.437 42.517 125.681 42.0057C125.928 41.4915 126.272 41.0909 126.713 40.804C127.156 40.5142 127.673 40.3693 128.264 40.3693C128.605 40.3693 128.941 40.4261 129.274 40.5398C129.606 40.6534 129.909 40.8381 130.181 41.0938C130.454 41.3466 130.671 41.6818 130.833 42.0994C130.995 42.517 131.076 43.0312 131.076 43.642V44.0682H126.031V43.1989H130.053C130.053 42.8295 129.98 42.5 129.832 42.2102C129.687 41.9205 129.48 41.6918 129.21 41.5241C128.943 41.3565 128.627 41.2727 128.264 41.2727C127.863 41.2727 127.517 41.3722 127.224 41.571C126.934 41.767 126.711 42.0227 126.555 42.3381C126.399 42.6534 126.32 42.9915 126.32 43.3523V43.9318C126.32 44.4261 126.406 44.8452 126.576 45.1889C126.749 45.5298 126.99 45.7898 127.296 45.9688C127.603 46.1449 127.96 46.233 128.366 46.233C128.63 46.233 128.869 46.196 129.082 46.1222C129.298 46.0455 129.484 45.9318 129.64 45.7812C129.796 45.6278 129.917 45.4375 130.002 45.2102L130.974 45.483C130.872 45.8125 130.7 46.1023 130.458 46.3523C130.217 46.5994 129.919 46.7926 129.563 46.9318C129.208 47.0682 128.809 47.1364 128.366 47.1364ZM138.623 49.5909C138.137 49.5909 137.72 49.5284 137.37 49.4034C137.021 49.2812 136.73 49.1193 136.497 48.9176C136.267 48.7188 136.083 48.5057 135.947 48.2784L136.748 47.7159C136.839 47.8352 136.954 47.9716 137.093 48.125C137.232 48.2812 137.423 48.4162 137.664 48.5298C137.909 48.6463 138.228 48.7045 138.623 48.7045C139.151 48.7045 139.588 48.5767 139.931 48.321C140.275 48.0653 140.447 47.6648 140.447 47.1193V45.7898H140.362C140.288 45.9091 140.183 46.0568 140.046 46.233C139.913 46.4062 139.72 46.5611 139.467 46.6974C139.217 46.831 138.879 46.8977 138.453 46.8977C137.924 46.8977 137.45 46.7727 137.029 46.5227C136.612 46.2727 136.281 45.9091 136.036 45.4318C135.795 44.9545 135.674 44.375 135.674 43.6932C135.674 43.0227 135.792 42.4389 136.028 41.9418C136.264 41.4418 136.592 41.0554 137.012 40.7827C137.433 40.5071 137.919 40.3693 138.47 40.3693C138.896 40.3693 139.234 40.4403 139.484 40.5824C139.737 40.7216 139.93 40.8807 140.063 41.0597C140.2 41.2358 140.305 41.3807 140.379 41.4943H140.481V40.4545H141.453V47.1875C141.453 47.75 141.325 48.2074 141.069 48.5597C140.816 48.9148 140.475 49.1747 140.046 49.3395C139.62 49.5071 139.146 49.5909 138.623 49.5909ZM138.589 45.9943C138.992 45.9943 139.333 45.902 139.612 45.7173C139.89 45.5327 140.102 45.267 140.247 44.9205C140.392 44.5739 140.464 44.1591 140.464 43.6761C140.464 43.2045 140.393 42.7884 140.251 42.4276C140.109 42.0668 139.899 41.7841 139.62 41.5795C139.342 41.375 138.998 41.2727 138.589 41.2727C138.163 41.2727 137.808 41.3807 137.524 41.5966C137.242 41.8125 137.031 42.1023 136.889 42.4659C136.749 42.8295 136.68 43.233 136.68 43.6761C136.68 44.1307 136.751 44.5327 136.893 44.8821C137.038 45.2287 137.251 45.5014 137.532 45.7003C137.816 45.8963 138.169 45.9943 138.589 45.9943ZM145.22 47.1534C144.805 47.1534 144.428 47.0753 144.09 46.919C143.752 46.7599 143.484 46.5312 143.285 46.233C143.086 45.9318 142.987 45.5682 142.987 45.142C142.987 44.767 143.061 44.4631 143.208 44.2301C143.356 43.9943 143.553 43.8097 143.801 43.6761C144.048 43.5426 144.32 43.4432 144.619 43.3778C144.92 43.3097 145.222 43.2557 145.526 43.2159C145.924 43.1648 146.247 43.1264 146.494 43.1009C146.744 43.0724 146.926 43.0256 147.039 42.9602C147.156 42.8949 147.214 42.7812 147.214 42.6193V42.5852C147.214 42.1648 147.099 41.8381 146.869 41.6051C146.642 41.3722 146.296 41.2557 145.833 41.2557C145.353 41.2557 144.977 41.3608 144.704 41.571C144.431 41.7812 144.24 42.0057 144.129 42.2443L143.174 41.9034C143.345 41.5057 143.572 41.196 143.856 40.9744C144.143 40.75 144.455 40.5937 144.794 40.5057C145.134 40.4148 145.47 40.3693 145.799 40.3693C146.009 40.3693 146.251 40.3949 146.524 40.446C146.799 40.4943 147.065 40.5952 147.32 40.7486C147.579 40.902 147.794 41.1335 147.964 41.4432C148.134 41.7528 148.22 42.1676 148.22 42.6875V47H147.214V46.1136H147.163C147.095 46.2557 146.981 46.4077 146.822 46.5696C146.663 46.7315 146.451 46.8693 146.187 46.983C145.923 47.0966 145.6 47.1534 145.22 47.1534ZM145.373 46.25C145.771 46.25 146.106 46.1719 146.379 46.0156C146.654 45.8594 146.862 45.6577 147.001 45.4105C147.143 45.1634 147.214 44.9034 147.214 44.6307V43.7102C147.171 43.7614 147.078 43.8082 146.933 43.8509C146.791 43.8906 146.626 43.9261 146.438 43.9574C146.254 43.9858 146.073 44.0114 145.897 44.0341C145.724 44.054 145.583 44.071 145.475 44.0852C145.214 44.1193 144.97 44.1747 144.742 44.2514C144.518 44.3253 144.336 44.4375 144.197 44.5881C144.061 44.7358 143.992 44.9375 143.992 45.1932C143.992 45.5426 144.122 45.8068 144.38 45.9858C144.642 46.1619 144.972 46.25 145.373 46.25ZM150.055 49.4545V40.4545H151.027V41.4943H151.146C151.22 41.3807 151.322 41.2358 151.453 41.0597C151.586 40.8807 151.777 40.7216 152.024 40.5824C152.274 40.4403 152.612 40.3693 153.038 40.3693C153.589 40.3693 154.075 40.5071 154.496 40.7827C154.916 41.0582 155.244 41.4489 155.48 41.9545C155.716 42.4602 155.834 43.0568 155.834 43.7443C155.834 44.4375 155.716 45.0384 155.48 45.5469C155.244 46.0526 154.917 46.4446 154.5 46.723C154.082 46.9986 153.601 47.1364 153.055 47.1364C152.635 47.1364 152.298 47.0668 152.045 46.9276C151.792 46.7855 151.598 46.625 151.461 46.446C151.325 46.2642 151.22 46.1136 151.146 45.9943H151.061V49.4545H150.055ZM151.044 43.7273C151.044 44.2216 151.116 44.6577 151.261 45.0355C151.406 45.4105 151.618 45.7045 151.896 45.9176C152.175 46.1278 152.515 46.233 152.919 46.233C153.339 46.233 153.69 46.1222 153.971 45.9006C154.256 45.6761 154.469 45.375 154.611 44.9972C154.756 44.6165 154.828 44.1932 154.828 43.7273C154.828 43.267 154.757 42.8523 154.615 42.483C154.476 42.1108 154.264 41.8168 153.98 41.6009C153.699 41.3821 153.345 41.2727 152.919 41.2727C152.51 41.2727 152.166 41.3764 151.888 41.5838C151.609 41.7884 151.399 42.0753 151.257 42.4446C151.115 42.8111 151.044 43.2386 151.044 43.7273ZM162.226 47L160.231 40.4545H161.288L162.703 45.4659H162.771L164.169 40.4545H165.243L166.623 45.4489H166.692L168.106 40.4545H169.163L167.169 47H166.18L164.748 41.9716H164.646L163.214 47H162.226ZM170.493 47V40.4545H171.498V47H170.493ZM171.004 39.3636C170.808 39.3636 170.639 39.2969 170.497 39.1634C170.358 39.0298 170.288 38.8693 170.288 38.6818C170.288 38.4943 170.358 38.3338 170.497 38.2003C170.639 38.0668 170.808 38 171.004 38C171.2 38 171.368 38.0668 171.507 38.2003C171.649 38.3338 171.72 38.4943 171.72 38.6818C171.72 38.8693 171.649 39.0298 171.507 39.1634C171.368 39.2969 171.2 39.3636 171.004 39.3636ZM176.187 40.4545V41.3068H172.795V40.4545H176.187ZM173.784 38.8864H174.789V45.125C174.789 45.4091 174.83 45.6222 174.913 45.7642C174.998 45.9034 175.106 45.9972 175.237 46.0455C175.37 46.0909 175.511 46.1136 175.659 46.1136C175.769 46.1136 175.86 46.108 175.931 46.0966C176.002 46.0824 176.059 46.071 176.102 46.0625L176.306 46.9659C176.238 46.9915 176.143 47.017 176.021 47.0426C175.899 47.071 175.744 47.0852 175.556 47.0852C175.272 47.0852 174.994 47.0241 174.721 46.902C174.451 46.7798 174.227 46.5938 174.048 46.3438C173.872 46.0938 173.784 45.7784 173.784 45.3977V38.8864ZM178.846 43.0625V47H177.84V38.2727H178.846V41.4773H178.931C179.085 41.1392 179.315 40.8707 179.622 40.6719C179.931 40.4702 180.343 40.3693 180.857 40.3693C181.303 40.3693 181.694 40.4588 182.029 40.6378C182.365 40.8139 182.624 41.0852 182.809 41.4517C182.997 41.8153 183.09 42.2784 183.09 42.8409V47H182.085V42.9091C182.085 42.3892 181.95 41.9872 181.68 41.7031C181.413 41.4162 181.042 41.2727 180.568 41.2727C180.238 41.2727 179.943 41.3423 179.681 41.4815C179.423 41.6207 179.218 41.8239 179.068 42.0909C178.92 42.358 178.846 42.6818 178.846 43.0625ZM191.067 47.1278C190.405 47.1278 189.832 46.9872 189.349 46.706C188.869 46.4219 188.498 46.027 188.237 45.5213C187.976 45.0128 187.845 44.4233 187.845 43.7528C187.845 43.0767 187.976 42.4858 188.237 41.9801C188.498 41.4716 188.869 41.0767 189.349 40.7955C189.832 40.5114 190.405 40.3693 191.067 40.3693C191.729 40.3693 192.3 40.5114 192.78 40.7955C193.263 41.0767 193.635 41.4716 193.896 41.9801C194.157 42.4858 194.288 43.0767 194.288 43.7528C194.288 44.4233 194.157 45.0128 193.896 45.5213C193.635 46.027 193.263 46.4219 192.78 46.706C192.3 46.9872 191.729 47.1278 191.067 47.1278ZM191.075 45.7216C191.376 45.7216 191.628 45.6364 191.829 45.4659C192.031 45.2926 192.183 45.0568 192.285 44.7585C192.39 44.4602 192.443 44.1207 192.443 43.7401C192.443 43.3594 192.39 43.0199 192.285 42.7216C192.183 42.4233 192.031 42.1875 191.829 42.0142C191.628 41.8409 191.376 41.7543 191.075 41.7543C190.771 41.7543 190.515 41.8409 190.308 42.0142C190.104 42.1875 189.949 42.4233 189.844 42.7216C189.741 43.0199 189.69 43.3594 189.69 43.7401C189.69 44.1207 189.741 44.4602 189.844 44.7585C189.949 45.0568 190.104 45.2926 190.308 45.4659C190.515 45.6364 190.771 45.7216 191.075 45.7216ZM197.284 43.2159V47H195.469V40.4545H197.199V41.6094H197.275C197.42 41.2287 197.663 40.9276 198.004 40.706C198.345 40.4815 198.758 40.3693 199.244 40.3693C199.699 40.3693 200.095 40.4688 200.433 40.6676C200.771 40.8665 201.034 41.1506 201.221 41.5199C201.409 41.8864 201.503 42.3239 201.503 42.8324V47H199.687V43.1562C199.69 42.7557 199.588 42.4432 199.381 42.2188C199.173 41.9915 198.888 41.8778 198.524 41.8778C198.28 41.8778 198.064 41.9304 197.876 42.0355C197.692 42.1406 197.547 42.294 197.442 42.4957C197.339 42.6946 197.287 42.9347 197.284 43.2159ZM205.916 47.1278C205.243 47.1278 204.664 46.9915 204.178 46.7188C203.695 46.4432 203.323 46.054 203.061 45.5511C202.8 45.0455 202.669 44.4474 202.669 43.7571C202.669 43.0838 202.8 42.4929 203.061 41.9844C203.323 41.4759 203.691 41.0795 204.165 40.7955C204.642 40.5114 205.202 40.3693 205.844 40.3693C206.276 40.3693 206.678 40.4389 207.05 40.5781C207.425 40.7145 207.752 40.9205 208.03 41.196C208.311 41.4716 208.53 41.8182 208.686 42.2358C208.843 42.6506 208.921 43.1364 208.921 43.6932V44.1918H203.394V43.0668H207.212C207.212 42.8054 207.155 42.5739 207.041 42.3722C206.928 42.1705 206.77 42.0128 206.568 41.8991C206.369 41.7827 206.138 41.7244 205.874 41.7244C205.598 41.7244 205.354 41.7884 205.141 41.9162C204.931 42.0412 204.766 42.2102 204.646 42.4233C204.527 42.6335 204.466 42.8679 204.463 43.1264V44.196C204.463 44.5199 204.523 44.7997 204.642 45.0355C204.764 45.2713 204.936 45.4531 205.158 45.581C205.379 45.7088 205.642 45.7727 205.946 45.7727C206.148 45.7727 206.333 45.7443 206.5 45.6875C206.668 45.6307 206.811 45.5455 206.931 45.4318C207.05 45.3182 207.141 45.179 207.203 45.0142L208.882 45.125C208.797 45.5284 208.622 45.8807 208.358 46.1818C208.097 46.4801 207.759 46.7131 207.344 46.8807C206.932 47.0455 206.456 47.1278 205.916 47.1278ZM216.962 40.4545V41.8182H213.02V40.4545H216.962ZM213.915 38.8864H215.73V44.9886C215.73 45.1562 215.756 45.2869 215.807 45.3807C215.858 45.4716 215.929 45.5355 216.02 45.5724C216.114 45.6094 216.222 45.6278 216.344 45.6278C216.429 45.6278 216.514 45.6207 216.6 45.6065C216.685 45.5895 216.75 45.5767 216.796 45.5682L217.081 46.919C216.99 46.9474 216.862 46.9801 216.698 47.017C216.533 47.0568 216.333 47.081 216.097 47.0895C215.659 47.1065 215.276 47.0483 214.946 46.9148C214.619 46.7812 214.365 46.5739 214.183 46.2926C214.002 46.0114 213.912 45.6562 213.915 45.2273V38.8864ZM220.011 47.1236C219.593 47.1236 219.221 47.0511 218.894 46.9062C218.568 46.7585 218.309 46.5412 218.119 46.2543C217.931 45.9645 217.838 45.6037 217.838 45.1719C217.838 44.8082 217.904 44.5028 218.038 44.2557C218.171 44.0085 218.353 43.8097 218.583 43.6591C218.813 43.5085 219.075 43.3949 219.367 43.3182C219.663 43.2415 219.972 43.1875 220.296 43.1562C220.677 43.1165 220.984 43.0795 221.217 43.0455C221.45 43.0085 221.619 42.9545 221.724 42.8835C221.829 42.8125 221.882 42.7074 221.882 42.5682V42.5426C221.882 42.2727 221.796 42.0639 221.626 41.9162C221.458 41.7685 221.22 41.6946 220.91 41.6946C220.583 41.6946 220.323 41.767 220.13 41.9119C219.937 42.054 219.809 42.233 219.747 42.4489L218.068 42.3125C218.153 41.9148 218.32 41.571 218.57 41.2812C218.82 40.9886 219.143 40.7642 219.538 40.608C219.936 40.4489 220.396 40.3693 220.919 40.3693C221.282 40.3693 221.63 40.4119 221.963 40.4972C222.298 40.5824 222.595 40.7145 222.853 40.8935C223.115 41.0724 223.32 41.3026 223.471 41.5838C223.622 41.8622 223.697 42.196 223.697 42.5852V47H221.975V46.0923H221.924C221.819 46.2969 221.678 46.4773 221.502 46.6335C221.326 46.7869 221.115 46.9077 220.867 46.9957C220.62 47.081 220.335 47.1236 220.011 47.1236ZM220.531 45.8707C220.798 45.8707 221.034 45.8182 221.238 45.7131C221.443 45.6051 221.603 45.4602 221.72 45.2784C221.836 45.0966 221.894 44.8906 221.894 44.6605V43.9659C221.838 44.0028 221.759 44.0369 221.66 44.0682C221.563 44.0966 221.454 44.1236 221.332 44.1491C221.21 44.1719 221.088 44.1932 220.965 44.2131C220.843 44.2301 220.732 44.2457 220.633 44.2599C220.42 44.2912 220.234 44.3409 220.075 44.4091C219.916 44.4773 219.792 44.5696 219.704 44.6861C219.616 44.7997 219.572 44.9418 219.572 45.1122C219.572 45.3594 219.661 45.5483 219.84 45.679C220.022 45.8068 220.252 45.8707 220.531 45.8707ZM225.105 49.4545V40.4545H226.895V41.554H226.976C227.056 41.3778 227.171 41.1989 227.321 41.017C227.475 40.8324 227.673 40.679 227.918 40.5568C228.165 40.4318 228.472 40.3693 228.838 40.3693C229.316 40.3693 229.756 40.4943 230.159 40.7443C230.563 40.9915 230.885 41.3651 231.127 41.8651C231.368 42.3622 231.489 42.9858 231.489 43.7358C231.489 44.4659 231.371 45.0824 231.135 45.5852C230.902 46.0852 230.584 46.4645 230.181 46.723C229.78 46.9787 229.331 47.1065 228.834 47.1065C228.482 47.1065 228.182 47.0483 227.935 46.9318C227.691 46.8153 227.49 46.669 227.334 46.4929C227.178 46.3139 227.058 46.1335 226.976 45.9517H226.921V49.4545H225.105ZM226.882 43.7273C226.882 44.1165 226.936 44.456 227.044 44.7457C227.152 45.0355 227.308 45.2614 227.513 45.4233C227.718 45.5824 227.966 45.6619 228.259 45.6619C228.554 45.6619 228.804 45.581 229.009 45.419C229.213 45.2543 229.368 45.027 229.473 44.7372C229.581 44.4446 229.635 44.108 229.635 43.7273C229.635 43.3494 229.583 43.017 229.477 42.7301C229.372 42.4432 229.218 42.2187 229.013 42.0568C228.808 41.8949 228.557 41.8139 228.259 41.8139C227.963 41.8139 227.713 41.892 227.509 42.0483C227.307 42.2045 227.152 42.4261 227.044 42.7131C226.936 43 226.882 43.3381 226.882 43.7273Z" fill="#50269D"/>
<rect x="125" y="98" width="62" height="8" rx="1" fill="white"/>
<rect x="125" y="98" width="62" height="8" rx="1" fill="#F6A43E"/>
<defs>
<clipPath id="clip0_216_122">
<rect width="223" height="117" fill="white" transform="translate(17)"/>
</clipPath>
</defs>
</svg>
