<svg width="100" height="100" viewBox="0 0 100 100" fill="none" xmlns="http://www.w3.org/2000/svg">
<path d="M53.8673 40.1753C53.4532 39.7572 52.8899 39.5206 52.3014 39.5177C51.7129 39.5149 51.1474 39.7459 50.7292 40.16L26.9753 63.683C26.104 64.5458 26.0971 65.9497 26.96 66.821C27.3503 67.2152 27.8035 67.4239 28.278 67.4881L35.4175 68.2662L31.3179 79.147C31.0248 79.9714 31.2476 80.8602 31.8434 81.4619C32.0693 81.6901 32.2953 81.9183 32.6873 81.9821L41.0129 85.0783C42.167 85.4968 43.4911 84.9252 43.8478 83.7502L47.9477 72.8281L53.8324 76.9034C54.2618 77.1584 54.7562 77.2828 55.2552 77.2613C56.4737 77.164 57.3666 76.1155 57.2492 74.7936L54.5418 41.5619L54.5005 41.5617C54.4607 41.039 54.2362 40.5476 53.8673 40.1753Z" fill="#F6A43E"/>
</svg>
