<svg width="25" height="25" viewBox="0 0 25 25" fill="none" xmlns="http://www.w3.org/2000/svg">
<path d="M23.0913 8.52948L14.4639 0.930833C13.2314 -0.301655 11.2248 -0.301655 10.0432 0.879904L1.31397 8.58041C0.468549 9.42583 0 10.5565 0 11.7584V21.9341C0 23.6249 1.37509 25 3.06594 25H21.4005C23.0811 25 24.4562 23.6249 24.4562 21.9341V11.7584C24.4562 10.5565 23.9877 9.42583 23.0913 8.52948ZM22.4191 21.9341C22.4191 22.5045 21.9607 22.9628 21.4005 22.9628H14.9426V16.4031C14.9426 15.8124 14.4741 15.3438 13.8833 15.3438H10.5729C9.99232 15.3438 9.51358 15.8124 9.51358 16.4031V22.9628H3.06594C2.49553 22.9628 2.03717 22.5045 2.03717 21.9341V11.7584C2.03717 11.1167 2.302 10.475 2.70944 10.0574L11.4387 2.36704C11.6526 2.15314 11.9276 2.04109 12.2128 2.04109C12.5184 2.04109 12.824 2.16332 13.0684 2.40778L21.6959 10.0166C22.1644 10.4852 22.4191 11.1065 22.4191 11.7584V21.9341Z" fill="#F6A43E"/>
</svg>
