<svg width="16" height="23" viewBox="0 0 16 23" fill="none" xmlns="http://www.w3.org/2000/svg">
<path d="M8 0C5.87827 0 3.84344 0.848122 2.34315 2.35779C0.842855 3.86746 0 5.91501 0 8.05C0 10.787 1.36 13.1905 3.42857 14.651V17.25C3.42857 17.555 3.54898 17.8475 3.76331 18.0632C3.97763 18.2788 4.26832 18.4 4.57143 18.4H11.4286C11.7317 18.4 12.0224 18.2788 12.2367 18.0632C12.451 17.8475 12.5714 17.555 12.5714 17.25V14.651C14.64 13.1905 16 10.787 16 8.05C16 5.91501 15.1571 3.86746 13.6569 2.35779C12.1566 0.848122 10.1217 0 8 0ZM4.57143 21.85C4.57143 22.155 4.69184 22.4475 4.90616 22.6632C5.12049 22.8788 5.41118 23 5.71429 23H10.2857C10.5888 23 10.8795 22.8788 11.0938 22.6632C11.3082 22.4475 11.4286 22.155 11.4286 21.85V20.7H4.57143V21.85Z" fill="#F6A43E"/>
</svg>
