<svg width="23" height="25" viewBox="0 0 23 25" fill="none" xmlns="http://www.w3.org/2000/svg">
<path d="M0.625 24.5832V0.416504L2.4375 2.229L4.25 0.416504L6.0625 2.229L7.875 0.416504L9.6875 2.229L11.5 0.416504L13.3125 2.229L15.125 0.416504L16.9375 2.229L18.75 0.416504L20.5625 2.229L22.375 0.416504V24.5832L20.5625 22.7707L18.75 24.5832L16.9375 22.7707L15.125 24.5832L13.3125 22.7707L11.5 24.5832L9.6875 22.7707L7.875 24.5832L6.0625 22.7707L4.25 24.5832L2.4375 22.7707L0.625 24.5832ZM4.25 18.5415H18.75V16.1248H4.25V18.5415ZM4.25 13.7082H18.75V11.2915H4.25V13.7082ZM4.25 8.87484H18.75V6.45817H4.25V8.87484Z" fill="#F6A43E"/>
</svg>
