<svg width="25" height="25" viewBox="0 0 25 25" fill="none" xmlns="http://www.w3.org/2000/svg">
<path d="M11.1779 6.24988H13.8221V12.4999H23.6779C24.0285 12.4999 24.3648 12.3706 24.6128 12.1403C24.8607 11.9101 25 11.5978 25 11.2722V7.47757C25 7.15196 24.8607 6.8397 24.6128 6.60946C24.3648 6.37923 24.0285 6.24988 23.6779 6.24988H20.0829C20.5698 5.31885 20.6831 4.25715 20.4027 3.25547C20.1223 2.2538 19.4664 1.37779 18.5529 0.784795C17.6394 0.191801 16.5282 -0.0793169 15.4188 0.0201382C14.3093 0.119593 13.2745 0.583104 12.5 1.32742C11.7242 0.587184 10.6902 0.127256 9.58282 0.0298351C8.47542 -0.0675857 7.36681 0.20385 6.45511 0.795629C5.54342 1.38741 4.88807 2.26096 4.6062 3.26015C4.32433 4.25935 4.4343 5.31906 4.91647 6.24988H1.32212C0.971469 6.24988 0.635183 6.37923 0.387239 6.60946C0.139294 6.8397 0 7.15196 0 7.47757V11.2722C0 11.5978 0.139294 11.9101 0.387239 12.1403C0.510008 12.2543 0.655757 12.3448 0.816164 12.4065C0.97657 12.4682 1.14849 12.4999 1.32212 12.4999H11.1779V6.24988ZM13.8221 4.35255C13.8221 3.97729 13.942 3.61046 14.1665 3.29844C14.391 2.98643 14.7101 2.74324 15.0835 2.59964C15.4568 2.45603 15.8677 2.41846 16.264 2.49167C16.6604 2.56488 17.0244 2.74558 17.3102 3.01093C17.5959 3.27628 17.7906 3.61435 17.8694 3.9824C17.9482 4.35044 17.9078 4.73193 17.7531 5.07863C17.5985 5.42532 17.3366 5.72164 17.0006 5.93012C16.6645 6.1386 16.2695 6.24988 15.8654 6.24988H13.8221V4.35255ZM7.09135 4.35255C7.09135 3.84934 7.30662 3.36675 7.68981 3.01093C8.07299 2.65511 8.59271 2.45521 9.13461 2.45521C9.67652 2.45521 10.1962 2.65511 10.5794 3.01093C10.9626 3.36675 11.1779 3.84934 11.1779 4.35255V6.24988H9.13461C8.59271 6.24988 8.07299 6.04998 7.68981 5.69416C7.30662 5.33835 7.09135 4.85575 7.09135 4.35255ZM13.8221 25H21.7548C22.1055 25 22.4417 24.8707 22.6897 24.6404C22.9376 24.4102 23.0769 24.0979 23.0769 23.7723V14.2856H13.8221V25ZM1.92308 23.7723C1.92308 24.0979 2.06237 24.4102 2.31032 24.6404C2.55826 24.8707 2.89455 25 3.24519 25H11.1779V14.2856H1.92308V23.7723Z" fill="#F6A43E"/>
</svg>
