<?xml version="1.0" standalone="no"?>
<!DOCTYPE svg PUBLIC "-//W3C//DTD SVG 20010904//EN"
 "http://www.w3.org/TR/2001/REC-SVG-20010904/DTD/svg10.dtd">
<svg version="1.0" xmlns="http://www.w3.org/2000/svg"
 width="512.000000pt" height="512.000000pt" viewBox="0 0 512.000000 512.000000"
 preserveAspectRatio="xMidYMid meet">

<g transform="translate(0.000000,512.000000) scale(0.100000,-0.100000)"
fill="#000000" stroke="none">
<path d="M883 4946 c-81 -20 -162 -66 -225 -130 -55 -55 -74 -88 -279 -498
l-219 -438 0 -249 c0 -335 20 -433 121 -588 40 -61 169 -193 189 -193 7 0 10
-416 10 -1184 l0 -1184 -109 -4 c-92 -2 -114 -6 -137 -24 -53 -39 -69 -71 -69
-134 0 -63 16 -95 69 -134 l27 -21 2299 0 2299 0 27 21 c53 39 69 71 69 134 0
63 -16 95 -69 134 -23 18 -45 22 -137 24 l-109 4 0 1184 c0 768 3 1184 10
1184 20 0 149 132 189 193 101 155 121 253 121 587 l0 248 -211 424 c-116 232
-228 446 -250 474 -47 62 -137 127 -216 157 l-58 22 -1645 2 c-1294 1 -1656
-1 -1697 -11z m3294 -317 c15 -6 39 -20 52 -32 13 -12 88 -151 167 -309 l144
-288 -1980 0 -1980 0 144 288 c79 158 154 297 167 309 13 12 35 26 49 32 36
14 3199 15 3237 0z m-2899 -1116 c-3 -164 -4 -169 -35 -235 -44 -93 -100 -151
-191 -196 -72 -35 -81 -37 -171 -37 -87 0 -102 3 -163 32 -93 44 -151 100
-196 191 l-37 76 -4 168 -3 168 402 0 402 0 -4 -167z m1120 0 c-3 -164 -4
-169 -35 -235 -44 -93 -100 -151 -191 -196 -72 -35 -81 -37 -171 -37 -87 0
-102 3 -163 32 -93 44 -151 100 -196 191 l-37 76 -4 168 -3 168 402 0 402 0
-4 -167z m1120 0 c-3 -164 -4 -169 -35 -235 -44 -93 -100 -151 -191 -196 -72
-35 -81 -37 -171 -37 -87 0 -102 3 -163 32 -93 44 -151 100 -196 191 l-37 76
-4 168 -3 168 402 0 402 0 -4 -167z m1120 0 c-3 -164 -4 -169 -35 -235 -44
-93 -100 -151 -191 -196 -72 -35 -81 -37 -171 -37 -87 0 -102 3 -163 32 -93
44 -151 100 -196 191 l-37 76 -4 168 -3 168 402 0 402 0 -4 -167z m-3128 -597
c79 -74 170 -128 278 -164 67 -23 94 -26 212 -26 118 0 145 3 212 26 108 36
199 90 279 165 l69 65 69 -65 c80 -75 171 -129 279 -165 67 -23 94 -26 212
-26 118 0 145 3 212 26 108 36 199 90 279 165 l69 65 74 -69 c82 -77 198 -142
301 -169 33 -8 106 -18 163 -21 l102 -6 0 -1118 0 -1119 -480 0 -480 0 0 508
c0 558 -1 570 -61 683 -38 70 -126 157 -197 193 -104 53 -135 56 -542 56 -407
0 -438 -3 -542 -56 -71 -36 -159 -123 -197 -193 -60 -113 -61 -125 -61 -683
l0 -508 -480 0 -480 0 0 1118 0 1117 93 1 c177 2 335 66 464 188 43 42 80 75
82 76 2 0 34 -29 71 -64z m1456 -1342 c15 -11 37 -33 48 -48 20 -27 21 -40 24
-537 l3 -509 -481 0 -480 0 0 494 c0 326 4 504 11 523 6 15 20 39 32 52 46 50
56 51 449 48 353 -2 368 -3 394 -23z"/>
</g>
</svg>
