<svg width="21" height="24" viewBox="0 0 21 24" fill="none" xmlns="http://www.w3.org/2000/svg">
<path d="M20.9927 9.96766L20.7997 7.79328C20.6068 5.9223 19.9894 4.10189 18.9089 2.38262C18.1371 1.11844 16.4392 0.233519 14.4326 0.00596786C13.8924 -0.0445991 13.4293 0.233519 13.4293 0.562205L13.1206 22.5083C13.1206 23.3426 14.1239 24 15.3587 24C16.6322 24 17.6355 23.3173 17.5969 22.5083L17.3654 11.8386H18.2915C19.8736 11.8386 21.1085 10.979 20.9927 9.96766Z" fill="white"/>
<path d="M8.75963 0.106934C8.21938 0.106934 7.79491 0.385052 7.79491 0.739021V6.1244C7.79491 6.2761 7.60196 6.42781 7.33184 6.42781H6.28995C6.05842 6.42781 5.82689 6.30139 5.82689 6.1244V0.764304C5.82689 0.410335 5.40241 0.132217 4.86217 0.132217C4.32193 0.132217 3.89745 0.410335 3.89745 0.764304V6.14969C3.89745 6.30139 3.70451 6.45309 3.43439 6.45309H2.3925C2.16096 6.45309 1.92943 6.32667 1.92943 6.14969V0.764304C1.92943 0.410335 1.50496 0.132217 0.964716 0.132217C0.424475 0.132217 0 0.410335 0 0.764304V7.28744C0 8.39992 1.27343 9.31012 2.93274 9.41126L2.62403 22.5081C2.62403 23.3425 3.62733 23.9998 4.86217 23.9998C6.09701 23.9998 7.1389 23.3172 7.10031 22.5081L6.7916 9.41126C8.45092 9.31012 9.72434 8.39992 9.72434 7.28744V0.764304C9.72434 0.410335 9.29987 0.106934 8.75963 0.106934Z" fill="white"/>
</svg>
